:SAMPLES-PER-SECOND 30
:FULLY-SPECIFIED
:DEGREES
183
root  0.145657 25.135 12.3792 -164.633 4.93634 -174.504
RightUpLeg  -84.9761 -2.66379 18.8476
RightLeg  88.6427 16.679 -16.7574
RightFoot  -22.5731 -0.28613 -4.39886
RightToes  -1.16415e-010 -3.18055e-015 -2.98177e-016
Spine  41.6944 -2.13527 4.26137
Spine1  -2.06927 -3.17509 12.4465
HEad  -26.2979 6.0325 0.534055
LeftShoulder1  -3.88251e-019 9.70628e-020 -3.87848e-018
LeftArm  -16.4181 17.2352 -54.1189
LeftForeArm  8.30171 -39.7525 9.85029
LeftHand  -3.90513 -8.34009 33.3206
RightShoulder  4.79324 9.23729 23.3139
RightArm  4.96584 -49.1786 27.1955
RightForeArm  -3.16827 35.9165 -19.7109
RightHand  -1.50844 2.62835 -21.3196
LeftUpLeg  -43.5078 3.71249 6.3906
LeftLeg  106.087 -16.0793 8.25316
LeftFoot  -50.3628 -7.41127 -21.3336
LeftToes  1.69338e-011 3.79281e-011 -2.20049e-011
184
root  0.185976 25.5345 11.8623 -163.743 5.79529 -174.963
RightUpLeg  -84.0248 -2.43046 18.2814
RightLeg  88.1506 16.4936 -16.1251
RightFoot  -23.7721 -0.309267 -4.19421
RightToes  -1.16415e-010 -3.18055e-015 -2.98177e-016
Spine  41.7836 -2.03144 4.8491
Spine1  -2.62195 -2.82878 12.6185
HEad  -26.5922 6.35966 0.206292
LeftShoulder1  -3.88251e-019 9.70628e-020 -3.87848e-018
LeftArm  -16.7127 18.1059 -52.9503
LeftForeArm  8.2023 -40.9987 10.3027
LeftHand  -3.7557 -8.20112 32.4387
RightShoulder  4.59414 9.10106 22.3937
RightArm  4.48649 -49.2592 26.4637
RightForeArm  -2.48086 37.796 -21.0595
RightHand  -0.90609 1.40116 -15.2119
LeftUpLeg  -42.2494 4.31778 5.27729
LeftLeg  103.386 -16.0304 9.34691
LeftFoot  -49.8625 -7.3091 -21.3448
LeftToes  1.69338e-011 3.79281e-011 -2.20049e-011
185
root  0.186568 26.0304 11.3292 -162.75 6.83412 -175.398
RightUpLeg  -82.8775 -2.12195 17.5724
RightLeg  87.19 16.1856 -15.2249
RightFoot  -24.6885 -0.315013 -3.94665
RightToes  -1.16415e-010 -3.18055e-015 -2.98177e-016
Spine  41.6869 -1.89541 5.45768
Spine1  -3.15469 -2.51407 12.9055
HEad  -26.8288 6.71288 -0.119604
LeftShoulder1  -3.88251e-019 9.70628e-020 -3.87848e-018
LeftArm  -16.3918 19.6516 -51.1884
LeftForeArm  7.31212 -42.4037 10.7967
LeftHand  -3.48953 -7.92562 30.8707
RightShoulder  4.42176 8.95868 21.6266
RightArm  4.83288 -49.1513 24.8671
RightForeArm  -0.959884 39.9083 -22.7219
RightHand  -0.473285 0.453512 -9.20317
LeftUpLeg  -41.0944 5.00493 4.07385
LeftLeg  100.451 -15.7323 9.99553
LeftFoot  -49.1586 -7.33442 -21.864
LeftToes  1.69338e-011 3.79281e-011 -2.20049e-011
186
root  0.155061 26.5737 10.7731 -161.739 7.53134 -175.807
RightUpLeg  -81.602 -2.17474 16.8582
RightLeg  86.0509 15.8728 -14.3698
RightFoot  -25.3581 -0.313086 -3.73244
RightToes  -1.16415e-010 -3.18055e-015 -2.98177e-016
Spine  41.379 -2.00707 6.36625
Spine1  -3.59601 -2.40507 13.2081
HEad  -27.0695 6.99296 -0.377385
LeftShoulder1  -3.88251e-019 9.70628e-020 -3.87848e-018
LeftArm  -15.1292 21.4973 -48.9084
LeftForeArm  5.45337 -43.7021 11.2216
LeftHand  -3.12216 -7.36533 28.9775
RightShoulder  4.28046 8.82379 21.0189
RightArm  5.32875 -48.5796 23.0622
RightForeArm  0.717094 41.8935 -24.4182
RightHand  -0.187129 -0.566488 -4.30668
LeftUpLeg  -40.285 5.04679 2.94619
LeftLeg  97.6655 -15.3716 10.5205
LeftFoot  -47.5951 -7.2318 -22.5851
LeftToes  1.69338e-011 3.79281e-011 -2.20049e-011
187
root  0.0986907 27.1868 10.1896 -160.9 8.17433 -176.148
RightUpLeg  -79.9461 -2.43286 16.1714
RightLeg  84.6363 15.5388 -13.5197
RightFoot  -26.0117 -0.314042 -3.5702
RightToes  -1.16415e-010 -3.18055e-015 -2.98177e-016
Spine  41.0893 -2.27132 7.63858
Spine1  -4.15865 -2.23992 13.0138
HEad  -27.0125 6.88988 -0.801932
LeftShoulder1  -3.88251e-019 9.70628e-020 -3.87848e-018
LeftArm  -12.684 23.4036 -46.4961
LeftForeArm  2.46415 -44.4779 11.3823
LeftHand  -2.80333 -6.69374 27.5969
RightShoulder  4.11511 8.65904 20.3051
RightArm  5.26495 -47.8802 21.5939
RightForeArm  3.10881 43.6347 -26.0679
RightHand  -0.0337962 -1.01152 -0.765981
LeftUpLeg  -39.5899 4.91856 1.76878
LeftLeg  94.8911 -15.1155 11.9038
LeftFoot  -44.4329 -6.60025 -22.7877
LeftToes  1.69338e-011 3.79281e-011 -2.20049e-011
188
root  0.0214159 27.8463 9.56926 -160.215 9.31439 -176.317
RightUpLeg  -77.933 -2.34483 15.4705
RightLeg  82.8999 15.1875 -12.5098
RightFoot  -26.5482 -0.308612 -3.39543
RightToes  -1.16415e-010 -3.18055e-015 -2.98177e-016
Spine  40.8744 -2.44934 9.17777
Spine1  -4.93375 -1.76304 12.0026
HEad  -26.417 6.30531 -1.59979
LeftShoulder1  -3.88251e-019 9.70628e-020 -3.87848e-018
LeftArm  -9.10838 25.629 -44.4248
LeftForeArm  -1.2185 -44.6763 11.2617
LeftHand  -2.7213 -6.35633 27.5777
RightShoulder  3.87808 8.38647 19.3182
RightArm  4.62239 -47.3171 20.6992
RightForeArm  6.464 45.2226 -27.743
RightHand  0.0442793 -0.177938 1.08826
LeftUpLeg  -39.0588 5.27237 0.525097
LeftLeg  92.4847 -14.8893 13.7732
LeftFoot  -39.6383 -5.7456 -23.5991
LeftToes  1.69338e-011 3.79281e-011 -2.20049e-011
189
root  -0.0604884 28.4636 8.9022 -159.493 10.9551 -176.319
RightUpLeg  -75.9147 -1.63728 14.6581
RightLeg  81.1146 14.8859 -11.5694
RightFoot  -26.8842 -0.284924 -3.12361
RightToes  -1.16415e-010 -3.18055e-015 -2.98177e-016
Spine  40.5302 -2.44205 10.729
Spine1  -5.74163 -1.08626 10.4564
HEad  -25.5683 5.60848 -2.6425
LeftShoulder1  -3.88251e-019 9.70628e-020 -3.87848e-018
LeftArm  -4.98798 28.7001 -42.9675
LeftForeArm  -4.46338 -44.702 11.0907
LeftHand  -2.90083 -6.56027 28.8081
RightShoulder  3.60895 8.02394 18.2476
RightArm  3.8191 -46.5516 20.3587
RightForeArm  9.29392 46.7902 -29.4859
RightHand  0.075573 0.942376 1.42346
LeftUpLeg  -39.6153 5.96932 -0.650613
LeftLeg  91.4953 -14.8759 15.5389
LeftFoot  -32.4246 -4.61312 -26.2935
LeftToes  1.69338e-011 3.79281e-011 -2.20049e-011
190
root  -0.115264 29.0203 8.1894 -158.813 12.6103 -176.38
RightUpLeg  -73.9224 -0.642118 13.5921
RightLeg  79.4454 14.6288 -10.9965
RightFoot  -27.3143 -0.242879 -2.70082
RightToes  -1.16415e-010 -3.18055e-015 -2.98177e-016
Spine  40.0257 -2.31488 11.8751
Spine1  -6.36413 -0.527176 8.9286
HEad  -25.0301 5.26347 -3.64133
LeftShoulder1  -3.88251e-019 9.70628e-020 -3.87848e-018
LeftArm  -1.4001 32.7973 -42.1803
LeftForeArm  -6.17035 -44.8799 11.0684
LeftHand  -3.08055 -6.89911 29.6924
RightShoulder  3.38843 7.71782 17.347
RightArm  3.03543 -45.1455 20.4869
RightForeArm  9.85609 48.3842 -31.2687
RightHand  0.0706712 1.05556 1.29296
LeftUpLeg  -42.2859 6.62122 -1.80133
LeftLeg  92.2706 -15.4679 18.1676
LeftFoot  -20.5377 -1.92798 -27.6321
LeftToes  1.69338e-011 3.79281e-011 -2.20049e-011
191
root  -0.138369 29.5145 7.47907 -158.602 13.7871 -176.57
RightUpLeg  -71.6909 0.11481 12.4216
RightLeg  77.9804 14.3929 -10.7875
RightFoot  -28.0632 -0.177141 -2.08013
RightToes  -1.16415e-010 -3.18055e-015 -2.98177e-016
Spine  39.6043 -2.30536 12.7088
Spine1  -6.71915 -0.317757 7.68726
HEad  -24.9994 5.30255 -4.42056
LeftShoulder1  -3.88251e-019 9.70628e-020 -3.87848e-018
LeftArm  0.725461 37.4381 -42.0612
LeftForeArm  -6.14218 -45.0208 11.1291
LeftHand  -2.91873 -6.83568 28.3196
RightShoulder  3.24837 7.56602 16.6808
RightArm  2.21625 -43.1237 20.9788
RightForeArm  8.06405 49.9309 -33.0177
RightHand  0.0532782 0.494229 1.10301
LeftUpLeg  -46.9115 7.19707 -2.89603
LeftLeg  93.9308 -16.6792 21.814
LeftFoot  -4.51709 1.58045 -22.2877
LeftToes  1.69338e-011 3.79281e-011 -2.20049e-011
192
root  -0.148482 29.8914 6.81466 -159.09 14.2796 -176.731
RightUpLeg  -69.1465 0.412759 11.4738
RightLeg  76.9544 14.2044 -10.846
RightFoot  -29.0342 -0.0770758 -1.25546
RightToes  -1.16415e-010 -3.18055e-015 -2.98177e-016
Spine  39.3723 -2.6246 13.7598
Spine1  -6.80496 -0.460349 6.50474
HEad  -25.1297 5.34388 -4.89737
LeftShoulder1  -3.88251e-019 9.70628e-020 -3.87848e-018
LeftArm  1.3536 41.8674 -42.5568
LeftForeArm  -5.1704 -44.7001 11.0498
LeftHand  -2.4251 -6.38218 24.6188
RightShoulder  3.17187 7.49962 16.2822
RightArm  1.50687 -40.7072 21.5947
RightForeArm  5.23168 51.2611 -34.5735
RightHand  -0.00320208 0.295044 0.0374158
LeftUpLeg  -51.8734 7.80167 -3.83746
LeftLeg  95.3166 -17.9928 25.0482
LeftFoot  8.24518 2.33379 -11.9916
LeftToes  1.69338e-011 3.79281e-011 -2.20049e-011
193
root  -0.131082 30.2023 6.13104 -160.026 14.2742 -177.112
RightUpLeg  -66.3417 0.279694 10.4891
RightLeg  76.2658 14.0472 -11.0665
RightFoot  -30.1396 0.0516488 -0.333233
RightToes  -1.16415e-010 -3.18055e-015 -2.98177e-016
Spine  39.1738 -3.12717 14.7198
Spine1  -6.65466 -0.714171 4.9592
HEad  -25.0021 5.03545 -5.03445
LeftShoulder1  -3.88251e-019 9.70628e-020 -3.87848e-018
LeftArm  1.23602 45.7263 -43.5308
LeftForeArm  -4.21515 -43.8036 10.7366
LeftHand  -1.95351 -5.92989 20.8255
RightShoulder  3.12878 7.41152 16.1428
RightArm  1.12678 -38.0344 22.0902
RightForeArm  2.77937 52.229 -35.7598
RightHand  -0.128965 0.642148 -2.36612
LeftUpLeg  -55.944 8.3792 -4.98591
LeftLeg  95.7 -18.9768 27.9733
LeftFoot  10.4339 0.85435 -3.69192
LeftToes  1.69338e-011 3.79281e-011 -2.20049e-011
194
root  -0.0944918 30.4671 5.41792 -160.983 14.1505 -177.751
RightUpLeg  -63.6333 0.0556832 9.28672
RightLeg  75.7947 13.9105 -11.3678
RightFoot  -31.3639 0.201682 0.601241
RightToes  -1.16415e-010 -3.18055e-015 -2.98177e-016
Spine  38.8875 -3.46733 15.2659
Spine1  -6.50035 -0.775338 3.09959
HEad  -24.6036 4.32925 -4.94141
LeftShoulder1  -3.88251e-019 9.70628e-020 -3.87848e-018
LeftArm  0.998851 49.1416 -44.8618
LeftForeArm  -3.45883 -42.5871 10.2992
LeftHand  -1.75418 -5.73502 19.0876
RightShoulder  3.06697 7.28667 15.9371
RightArm  0.813119 -35.4864 22.5916
RightForeArm  1.44508 52.853 -36.5792
RightHand  -0.305928 1.06656 -5.40145
LeftUpLeg  -59.6341 8.79832 -6.21346
LeftLeg  95.1055 -19.4075 30.5082
LeftFoot  3.71998 0.107243 -0.839689
LeftToes  1.69338e-011 3.79281e-011 -2.20049e-011
195
root  -0.0574994 30.6706 4.711 -161.875 14.1132 -178.457
RightUpLeg  -61.1664 -0.0720873 8.00946
RightLeg  75.5464 13.8209 -11.6123
RightFoot  -32.6718 0.373259 1.53367
RightToes  -1.16415e-010 -3.18055e-015 -2.98177e-016
Spine  38.6147 -3.51423 15.502
Spine1  -6.50929 -0.580585 1.16016
HEad  -24.2866 3.36533 -4.78541
LeftShoulder1  -3.88251e-019 9.70628e-020 -3.87848e-018
LeftArm  0.503015 52.2398 -46.4037
LeftForeArm  -2.25988 -41.3151 9.88278
LeftHand  -1.77219 -5.78152 19.1853
RightShoulder  2.9512 7.16453 15.3524
RightArm  0.0093653 -33.6193 23.3865
RightForeArm  0.794459 53.2981 -37.2056
RightHand  -0.483682 1.34441 -8.218
LeftUpLeg  -63.6493 9.05841 -7.11269
LeftLeg  93.5576 -18.8659 31.6993
LeftFoot  -4.26767 0.132746 -1.82799
LeftToes  1.69338e-011 3.79281e-011 -2.20049e-011
